HIERARCHY
ROOT Hips
{
	OFFSET -21.947001 39.810204 44.525997
	CHANNELS 6 Xposition Yposition Zposition Zrotation Xrotation Yrotation
	JOINT Chest
	{
		OFFSET -0.201599 0.334099 6.453201
		CHANNELS 6 Xposition Yposition Zposition Zrotation Xrotation Yrotation
		JOINT Chest2
		{
			OFFSET 0.000000 0.000000 3.568001
			CHANNELS 6 Xposition Yposition Zposition Zrotation Xrotation Yrotation
			JOINT Neck
			{
				OFFSET 0.000000 0.000000 8.296402
				CHANNELS 6 Xposition Yposition Zposition Zrotation Xrotation Yrotation
				JOINT Head
				{
					OFFSET 0.000000 0.000000 2.173901
					CHANNELS 6 Xposition Yposition Zposition Zrotation Xrotation Yrotation
					End Site
					{
						OFFSET 0.000000 0.000000 7.891998
					}
				}
			}
			JOINT LeftCollar
			{
				OFFSET 1.927601 0.221401 6.049000
				CHANNELS 6 Xposition Yposition Zposition Zrotation Xrotation Yrotation
				JOINT LeftShoulder
				{
					OFFSET 4.959700 0.000000 0.000000
					CHANNELS 6 Xposition Yposition Zposition Zrotation Xrotation Yrotation
					JOINT LeftElbow
					{
						OFFSET 0.000000 0.000000 -8.654202
						CHANNELS 6 Xposition Yposition Zposition Zrotation Xrotation Yrotation
						JOINT LeftWrist
						{
							OFFSET 0.000000 0.000000 -13.864101
							CHANNELS 6 Xposition Yposition Zposition Zrotation Xrotation Yrotation
							End Site
							{
								OFFSET 0.000000 0.000000 -2.173901
							}
						}
					}
				}
			}
			JOINT RightCollar
			{
				OFFSET -3.155701 -0.764999 6.687801
				CHANNELS 6 Xposition Yposition Zposition Zrotation Xrotation Yrotation
				JOINT RightShoulder
				{
					OFFSET -3.592899 0.000000 0.000000
					CHANNELS 6 Xposition Yposition Zposition Zrotation Xrotation Yrotation
					JOINT RightElbow
					{
						OFFSET 0.000000 0.000000 -10.352398
						CHANNELS 6 Xposition Yposition Zposition Zrotation Xrotation Yrotation
						JOINT RightWrist
						{
							OFFSET 0.000000 0.000000 -12.750301
							CHANNELS 6 Xposition Yposition Zposition Zrotation Xrotation Yrotation
							End Site
							{
								OFFSET 0.000000 0.000000 -2.173901
							}
						}
					}
				}
			}
		}
	}
	JOINT LeftHip
	{
		OFFSET 2.460600 -0.518101 -2.735500
		CHANNELS 6 Xposition Yposition Zposition Zrotation Xrotation Yrotation
		JOINT LeftKnee
		{
			OFFSET 0.000000 -0.000004 -17.005899
			CHANNELS 6 Xposition Yposition Zposition Zrotation Xrotation Yrotation
			JOINT LeftAnkle
			{
				OFFSET 0.000000 0.000000 -19.194401
				CHANNELS 6 Xposition Yposition Zposition Zrotation Xrotation Yrotation
				End Site
				{
					OFFSET 0.000000 -8.134600 0.000000
				}
			}
		}
	}
	JOINT RightHip
	{
		OFFSET -3.115499 -0.679600 -2.320301
		CHANNELS 6 Xposition Yposition Zposition Zrotation Xrotation Yrotation
		JOINT RightKnee
		{
			OFFSET 0.000000 -0.000004 -17.680401
			CHANNELS 6 Xposition Yposition Zposition Zrotation Xrotation Yrotation
			JOINT RightAnkle
			{
				OFFSET 0.000000 0.000000 -16.993797
				CHANNELS 6 Xposition Yposition Zposition Zrotation Xrotation Yrotation
				End Site
				{
					OFFSET 0.000000 -8.842300 0.000000
				}
			}
		}
	}
}
MOTION
Frames: 5
Frame Time: 0.041667
59.246201 5.609001 41.628201 2849.869657 4.375027 -10.208472 -0.201607 0.334101 6.453194 28.601351 6.175984 15.001160 0.000007 0.000004 3.567997 -22.005299 -0.999396 -4.169033 0.000004 -0.000000 8.296397 238.572115 -180.490836 175.006590 -0.000004 -0.000005 2.173907 1.784826 1.481509 6.085679 1.927599 0.221404 6.048999 -11.245293 -6.552036 11.994452 4.959703 -0.000001 0.000004 191.990607 186.023371 88.466161 0.000003 -0.000001 -8.654202 82.746594 -19.969451 13.066545 0.000003 -0.000002 -13.864104 4021.558993 -27.936370 12.581868 -3.155704 -0.764999 6.687796 43.501113 14.096099 20.877943 -3.592904 -0.000002 0.000010 -202.074384 201.069773 299.607395 0.000000 0.000002 -10.352395 -415.786946 -10.479818 -357.102097 -0.000000 0.000006 -12.750299 91.609489 166.778084 -160.917344 2.460596 -0.518103 -2.735512 -1067.865871 -13.708216 8.649359 0.000007 -0.000003 -17.005894 843.458968 164.760992 -149.212709 -0.000005 0.000003 -19.194401 228.584452 168.441440 206.520072 -3.115499 -0.679595 -2.320304 -400.843448 -44.793829 -12.790076 -0.000006 -0.000000 -17.680403 -818.698057 187.321940 -289.549040 0.000004 0.000003 -16.993792 1425.945696 43.618756 -489.970560
59.247726 5.612705 41.629799 2849.908124 4.400478 -10.235498 -0.201595 0.334102 6.453198 28.569660 6.154719 15.017064 0.000005 0.000001 3.567988 -21.983973 -1.010818 -4.167767 -0.000006 -0.000000 8.296402 238.595556 -180.504155 175.026808 -0.000006 0.000001 2.173906 1.701848 1.500974 6.144625 1.927599 0.221403 6.049005 -11.202513 -6.587615 12.055542 4.959694 0.000000 0.000001 191.950787 185.948772 88.328095 0.000011 -0.000005 -8.654194 82.706419 -19.965123 13.014505 0.000002 -0.000001 -13.864097 4021.557682 -27.860745 12.347128 -3.155710 -0.765002 6.687801 43.584424 14.160241 20.729899 -3.592903 0.000004 0.000001 -202.134244 201.156584 299.751704 -0.000004 0.000003 -10.352392 -415.819349 -10.370921 -357.123353 0.000002 0.000012 -12.750288 91.409460 166.539205 -160.695800 2.460605 -0.518098 -2.735508 -1067.764675 -13.751905 8.731205 0.000003 -0.000003 -17.005898 843.368973 164.700231 -149.176263 -0.000008 -0.000002 -19.194401 228.556284 168.477626 206.392744 -3.115486 -0.679593 -2.320298 -400.973304 -44.849112 -12.904730 -0.000002 0.000003 -17.680399 -818.516865 187.308881 -289.560078 0.000003 0.000001 -16.993792 1425.582440 43.509046 -490.282071
59.249016 5.616703 41.631092 2849.947248 4.422326 -10.256943 -0.201593 0.334101 6.453205 28.538252 6.130253 15.025410 0.000001 -0.000003 3.568001 -21.969787 -1.014049 -4.166351 0.000002 -0.000000 8.296396 238.631619 -180.517009 175.025100 -0.000006 -0.000004 2.173903 1.694511 1.521204 6.132041 1.927603 0.221404 6.049000 -11.145083 -6.627673 12.097845 4.959694 -0.000001 0.000004 191.906363 185.877287 88.189804 -0.000001 -0.000002 -8.654194 82.590210 -19.964452 12.949875 0.000007 -0.000002 -13.864102 4021.595712 -27.843879 12.044533 -3.155701 -0.765000 6.687803 43.635524 14.191455 20.634077 -3.592896 0.000001 0.000005 -202.130064 201.252849 299.870494 -0.000002 0.000002 -10.352394 -415.809322 -10.227300 -357.153214 -0.000001 -0.000004 -12.750299 91.178087 166.262295 -160.553896 2.460600 -0.518100 -2.735495 -1067.706755 -13.771558 8.790738 0.000007 0.000002 -17.005909 843.332254 164.667077 -149.180115 -0.000001 0.000004 -19.194401 228.521478 168.487352 206.312134 -3.115494 -0.679594 -2.320300 -401.069173 -44.882017 -12.989870 -0.000003 0.000001 -17.680399 -818.403758 187.328935 -289.531937 0.000002 0.000008 -16.993793 1425.292293 43.445471 -490.540252
59.250107 5.620499 41.632294 2849.986371 4.440848 -10.273944 -0.201598 0.334095 6.453201 28.509578 6.096268 15.024077 0.000001 0.000003 3.567999 -21.958030 -1.005059 -4.162959 -0.000002 -0.000001 8.296395 238.667246 -180.541844 174.994556 -0.000010 -0.000008 2.173900 1.725235 1.529670 6.065138 1.927607 0.221406 6.048999 -11.083561 -6.669379 12.125041 4.959705 -0.000001 0.000004 191.869453 185.806895 88.071191 -0.000010 0.000000 -8.654202 82.438266 -19.982430 12.893973 0.000003 0.000004 -13.864102 4021.689696 -27.863709 11.770777 -3.155700 -0.765001 6.687799 43.660847 14.206103 20.621618 -3.592894 0.000006 0.000009 -202.099779 201.334579 299.924453 -0.000004 -0.000003 -10.352394 -415.783913 -10.047618 -357.190535 -0.000002 0.000003 -12.750295 90.962144 165.933941 -160.566341 2.460600 -0.518098 -2.735508 -1067.665118 -13.786665 8.830563 0.000004 -0.000001 -17.005905 843.358646 164.627653 -149.192737 -0.000007 0.000000 -19.194401 228.446878 168.475154 206.240280 -3.115497 -0.679599 -2.320307 -401.109635 -44.889526 -13.029219 -0.000005 -0.000001 -17.680397 -818.365126 187.400187 -289.466122 0.000001 0.000000 -16.993786 1425.033183 43.433409 -490.825371
59.251305 5.623604 41.633293 2850.044510 4.469824 -10.272441 -0.201597 0.334101 6.453202 28.477164 6.008102 14.987353 0.000003 0.000001 3.567997 -21.954427 -0.976170 -4.156407 -0.000004 0.000000 8.296397 238.668202 -180.614626 174.950555 -0.000000 -0.000001 2.173896 1.794317 1.521531 5.963681 1.927597 0.221404 6.048995 -11.021808 -6.708515 12.164309 4.959702 -0.000001 0.000011 191.847118 185.752049 87.962762 -0.000001 -0.000003 -8.654200 82.325021 -19.987367 12.872048 0.000010 0.000001 -13.864103 4021.769254 -27.926232 11.516737 -3.155704 -0.764996 6.687803 43.701381 14.260783 20.730777 -3.592898 0.000001 -0.000005 -202.099000 201.416692 299.873445 -0.000004 0.000002 -10.352398 -415.717387 -9.852883 -357.226216 0.000000 0.000007 -12.750294 90.781772 165.575971 -160.573157 2.460601 -0.518099 -2.735495 -1067.633317 -13.837615 8.835586 -0.000007 -0.000004 -17.005901 843.412522 164.574187 -149.165785 -0.000005 0.000003 -19.194401 228.336543 168.460141 206.158810 -3.115495 -0.679592 -2.320300 -401.178865 -44.890609 -13.116338 -0.000007 0.000010 -17.680401 -818.297316 187.426333 -289.387657 0.000001 -0.000003 -16.993788 1424.856145 43.412498 -491.147538
